<mxfile host="app.diagrams.net" modified="2024-05-24T05:53:05.645Z" agent="Mozilla/5.0 (Windows NT 10.0; Win64; x64) AppleWebKit/537.36 (KHTML, like Gecko) Chrome/125.0.0.0 Safari/537.36 Edg/125.0.0.0" etag="xfW9BWr9ZWSMxUMoj75Z" version="24.4.6" type="device">
  <diagram name="Page-1" id="kymLFQEm4mXXD9yiPo3W">
    <mxGraphModel dx="956" dy="523" grid="1" gridSize="10" guides="1" tooltips="1" connect="1" arrows="1" fold="1" page="1" pageScale="1" pageWidth="827" pageHeight="1169" math="0" shadow="0">
      <root>
        <mxCell id="0" />
        <mxCell id="1" parent="0" />
        <mxCell id="G-0QwG7xUszIYkaHn1wC-14" value="" style="rounded=0;whiteSpace=wrap;html=1;" vertex="1" parent="1">
          <mxGeometry x="80" y="200" width="40" height="120" as="geometry" />
        </mxCell>
        <mxCell id="G-0QwG7xUszIYkaHn1wC-6" value="" style="endArrow=none;startArrow=classic;html=1;rounded=0;entryX=0.5;entryY=0;entryDx=0;entryDy=0;entryPerimeter=0;startFill=1;endFill=0;exitX=0.5;exitY=0.6;exitDx=0;exitDy=0;exitPerimeter=0;fillColor=#f8cecc;strokeColor=#b85450;" edge="1" parent="1">
          <mxGeometry width="50" height="50" relative="1" as="geometry">
            <mxPoint x="100" y="260" as="sourcePoint" />
            <mxPoint x="100" y="200" as="targetPoint" />
          </mxGeometry>
        </mxCell>
        <mxCell id="G-0QwG7xUszIYkaHn1wC-7" value="x" style="edgeLabel;html=1;align=center;verticalAlign=middle;resizable=0;points=[];" vertex="1" connectable="0" parent="G-0QwG7xUszIYkaHn1wC-6">
          <mxGeometry x="-0.4" y="-1" relative="1" as="geometry">
            <mxPoint x="-11" y="2" as="offset" />
          </mxGeometry>
        </mxCell>
        <mxCell id="G-0QwG7xUszIYkaHn1wC-8" value="" style="endArrow=none;startArrow=classic;html=1;rounded=0;entryX=0.5;entryY=0;entryDx=0;entryDy=0;entryPerimeter=0;endFill=0;fillColor=#f8cecc;strokeColor=#b85450;" edge="1" parent="1" source="G-0QwG7xUszIYkaHn1wC-10">
          <mxGeometry width="50" height="50" relative="1" as="geometry">
            <mxPoint x="160" y="200" as="sourcePoint" />
            <mxPoint x="100" y="200" as="targetPoint" />
          </mxGeometry>
        </mxCell>
        <mxCell id="G-0QwG7xUszIYkaHn1wC-11" value="" style="endArrow=none;startArrow=classic;html=1;rounded=0;entryDx=0;entryDy=0;entryPerimeter=0;endFill=0;fillColor=#f8cecc;strokeColor=#b85450;" edge="1" parent="1" target="G-0QwG7xUszIYkaHn1wC-10">
          <mxGeometry width="50" height="50" relative="1" as="geometry">
            <mxPoint x="160" y="200" as="sourcePoint" />
            <mxPoint x="100" y="200" as="targetPoint" />
          </mxGeometry>
        </mxCell>
        <mxCell id="G-0QwG7xUszIYkaHn1wC-12" value="y" style="edgeLabel;html=1;align=center;verticalAlign=middle;resizable=0;points=[];" vertex="1" connectable="0" parent="G-0QwG7xUszIYkaHn1wC-11">
          <mxGeometry x="-0.48" y="4" relative="1" as="geometry">
            <mxPoint x="6" y="-14" as="offset" />
          </mxGeometry>
        </mxCell>
        <mxCell id="G-0QwG7xUszIYkaHn1wC-10" value="" style="shape=waypoint;sketch=0;fillStyle=solid;size=6;pointerEvents=1;points=[];fillColor=none;resizable=0;rotatable=0;perimeter=centerPerimeter;snapToPoint=1;" vertex="1" parent="1">
          <mxGeometry x="90" y="190" width="20" height="20" as="geometry" />
        </mxCell>
        <mxCell id="G-0QwG7xUszIYkaHn1wC-15" value="" style="shape=waypoint;sketch=0;fillStyle=solid;size=6;pointerEvents=1;points=[];fillColor=none;resizable=0;rotatable=0;perimeter=centerPerimeter;snapToPoint=1;" vertex="1" parent="1">
          <mxGeometry x="90" y="310" width="20" height="20" as="geometry" />
        </mxCell>
        <mxCell id="G-0QwG7xUszIYkaHn1wC-17" value="Port 0" style="text;html=1;align=center;verticalAlign=middle;whiteSpace=wrap;rounded=0;" vertex="1" parent="1">
          <mxGeometry x="70" y="170" width="60" height="30" as="geometry" />
        </mxCell>
        <mxCell id="G-0QwG7xUszIYkaHn1wC-18" value="Port 1" style="text;html=1;align=center;verticalAlign=middle;whiteSpace=wrap;rounded=0;" vertex="1" parent="1">
          <mxGeometry x="74" y="320" width="60" height="30" as="geometry" />
        </mxCell>
        <mxCell id="G-0QwG7xUszIYkaHn1wC-21" value="" style="rounded=0;whiteSpace=wrap;html=1;" vertex="1" parent="1">
          <mxGeometry x="322.5" y="200" width="40" height="120" as="geometry" />
        </mxCell>
        <mxCell id="G-0QwG7xUszIYkaHn1wC-22" value="" style="endArrow=none;startArrow=classic;html=1;rounded=0;entryX=0.5;entryY=0;entryDx=0;entryDy=0;entryPerimeter=0;startFill=1;endFill=0;fillColor=#dae8fc;strokeColor=#000000;" edge="1" parent="1">
          <mxGeometry width="50" height="50" relative="1" as="geometry">
            <mxPoint x="342.5" y="230" as="sourcePoint" />
            <mxPoint x="342.5" y="200" as="targetPoint" />
          </mxGeometry>
        </mxCell>
        <mxCell id="G-0QwG7xUszIYkaHn1wC-33" value="&lt;font color=&quot;#ff8000&quot;&gt;(1,0)&lt;/font&gt;" style="edgeLabel;html=1;align=center;verticalAlign=middle;resizable=0;points=[];" vertex="1" connectable="0" parent="G-0QwG7xUszIYkaHn1wC-22">
          <mxGeometry x="-0.1333" y="-2" relative="1" as="geometry">
            <mxPoint x="18" y="13" as="offset" />
          </mxGeometry>
        </mxCell>
        <mxCell id="G-0QwG7xUszIYkaHn1wC-24" value="" style="endArrow=none;startArrow=classic;html=1;rounded=0;entryX=0.5;entryY=0;entryDx=0;entryDy=0;entryPerimeter=0;endFill=0;fillColor=#f8cecc;strokeColor=#b85450;" edge="1" parent="1" source="G-0QwG7xUszIYkaHn1wC-27">
          <mxGeometry width="50" height="50" relative="1" as="geometry">
            <mxPoint x="402.5" y="200" as="sourcePoint" />
            <mxPoint x="342.5" y="200" as="targetPoint" />
          </mxGeometry>
        </mxCell>
        <mxCell id="G-0QwG7xUszIYkaHn1wC-27" value="" style="shape=waypoint;sketch=0;fillStyle=solid;size=6;pointerEvents=1;points=[];fillColor=none;resizable=0;rotatable=0;perimeter=centerPerimeter;snapToPoint=1;" vertex="1" parent="1">
          <mxGeometry x="332.5" y="190" width="20" height="20" as="geometry" />
        </mxCell>
        <mxCell id="G-0QwG7xUszIYkaHn1wC-28" value="" style="shape=waypoint;sketch=0;fillStyle=solid;size=6;pointerEvents=1;points=[];fillColor=none;resizable=0;rotatable=0;perimeter=centerPerimeter;snapToPoint=1;" vertex="1" parent="1">
          <mxGeometry x="332.5" y="310" width="20" height="20" as="geometry" />
        </mxCell>
        <mxCell id="G-0QwG7xUszIYkaHn1wC-32" value="" style="endArrow=none;startArrow=classic;html=1;rounded=0;entryX=0.5;entryY=1;entryDx=0;entryDy=0;exitX=0.5;exitY=0.75;exitDx=0;exitDy=0;exitPerimeter=0;endFill=0;fillColor=#dae8fc;strokeColor=#000000;" edge="1" parent="1" source="G-0QwG7xUszIYkaHn1wC-21" target="G-0QwG7xUszIYkaHn1wC-21">
          <mxGeometry width="50" height="50" relative="1" as="geometry">
            <mxPoint x="132.5" y="350" as="sourcePoint" />
            <mxPoint x="182.5" y="300" as="targetPoint" />
          </mxGeometry>
        </mxCell>
        <mxCell id="G-0QwG7xUszIYkaHn1wC-34" value="&lt;font color=&quot;#00ffff&quot;&gt;(-1,0)&lt;/font&gt;" style="edgeLabel;html=1;align=center;verticalAlign=middle;resizable=0;points=[];" vertex="1" connectable="0" parent="G-0QwG7xUszIYkaHn1wC-32">
          <mxGeometry x="-0.4414" y="3" relative="1" as="geometry">
            <mxPoint x="17" y="-8" as="offset" />
          </mxGeometry>
        </mxCell>
        <mxCell id="G-0QwG7xUszIYkaHn1wC-35" value="&lt;font color=&quot;#3333ff&quot;&gt;(160,0)&lt;/font&gt;" style="text;html=1;align=center;verticalAlign=middle;whiteSpace=wrap;rounded=0;" vertex="1" parent="1">
          <mxGeometry x="312.5" y="320" width="60" height="30" as="geometry" />
        </mxCell>
        <mxCell id="G-0QwG7xUszIYkaHn1wC-36" value="(0,0)" style="text;html=1;align=center;verticalAlign=middle;whiteSpace=wrap;rounded=0;fontColor=#FF0000;" vertex="1" parent="1">
          <mxGeometry x="312.5" y="170" width="60" height="30" as="geometry" />
        </mxCell>
        <mxCell id="G-0QwG7xUszIYkaHn1wC-38" value="&lt;font style=&quot;font-size: 16px;&quot;&gt;&lt;u&gt;&lt;b&gt;Frame of reference&lt;/b&gt;&lt;/u&gt;&lt;/font&gt;" style="text;html=1;align=center;verticalAlign=middle;whiteSpace=wrap;rounded=0;" vertex="1" parent="1">
          <mxGeometry x="21.5" y="140" width="165" height="30" as="geometry" />
        </mxCell>
        <mxCell id="G-0QwG7xUszIYkaHn1wC-39" value="&lt;font style=&quot;font-size: 16px;&quot;&gt;&lt;u&gt;&lt;b&gt;Module attributes&lt;/b&gt;&lt;/u&gt;&lt;/font&gt;" style="text;html=1;align=center;verticalAlign=middle;whiteSpace=wrap;rounded=0;" vertex="1" parent="1">
          <mxGeometry x="500.62" y="140" width="165" height="30" as="geometry" />
        </mxCell>
        <mxCell id="G-0QwG7xUszIYkaHn1wC-40" value="" style="rounded=0;whiteSpace=wrap;html=1;" vertex="1" parent="1">
          <mxGeometry x="563.12" y="200" width="40" height="120" as="geometry" />
        </mxCell>
        <mxCell id="G-0QwG7xUszIYkaHn1wC-43" value="" style="endArrow=none;startArrow=classic;html=1;rounded=0;entryX=0.5;entryY=0;entryDx=0;entryDy=0;entryPerimeter=0;endFill=0;fillColor=#f8cecc;strokeColor=#b85450;" edge="1" parent="1">
          <mxGeometry width="50" height="50" relative="1" as="geometry">
            <mxPoint x="583.12" y="200" as="sourcePoint" />
            <mxPoint x="583.12" y="200" as="targetPoint" />
          </mxGeometry>
        </mxCell>
        <mxCell id="G-0QwG7xUszIYkaHn1wC-50" value="&lt;font style=&quot;font-size: 16px;&quot;&gt;&lt;u&gt;&lt;b&gt;Port attributes&lt;/b&gt;&lt;/u&gt;&lt;/font&gt;" style="text;html=1;align=center;verticalAlign=middle;whiteSpace=wrap;rounded=0;" vertex="1" parent="1">
          <mxGeometry x="260" y="140" width="165" height="30" as="geometry" />
        </mxCell>
        <mxCell id="G-0QwG7xUszIYkaHn1wC-51" value="" style="shape=waypoint;sketch=0;fillStyle=solid;size=6;pointerEvents=1;points=[];fillColor=none;resizable=0;rotatable=0;perimeter=centerPerimeter;snapToPoint=1;" vertex="1" parent="1">
          <mxGeometry x="553.12" y="190" width="20" height="20" as="geometry" />
        </mxCell>
        <mxCell id="G-0QwG7xUszIYkaHn1wC-52" value="" style="shape=waypoint;sketch=0;fillStyle=solid;size=6;pointerEvents=1;points=[];fillColor=none;resizable=0;rotatable=0;perimeter=centerPerimeter;snapToPoint=1;" vertex="1" parent="1">
          <mxGeometry x="593.12" y="190" width="20" height="20" as="geometry" />
        </mxCell>
        <mxCell id="G-0QwG7xUszIYkaHn1wC-53" value="" style="shape=waypoint;sketch=0;fillStyle=solid;size=6;pointerEvents=1;points=[];fillColor=none;resizable=0;rotatable=0;perimeter=centerPerimeter;snapToPoint=1;" vertex="1" parent="1">
          <mxGeometry x="593.12" y="310" width="20" height="20" as="geometry" />
        </mxCell>
        <mxCell id="G-0QwG7xUszIYkaHn1wC-54" value="" style="shape=waypoint;sketch=0;fillStyle=solid;size=6;pointerEvents=1;points=[];fillColor=none;resizable=0;rotatable=0;perimeter=centerPerimeter;snapToPoint=1;" vertex="1" parent="1">
          <mxGeometry x="553.12" y="310" width="20" height="20" as="geometry" />
        </mxCell>
        <mxCell id="G-0QwG7xUszIYkaHn1wC-55" value="(0,-20)" style="text;html=1;align=center;verticalAlign=middle;whiteSpace=wrap;rounded=0;fontColor=#FF0000;" vertex="1" parent="1">
          <mxGeometry x="513.12" y="180" width="60" height="30" as="geometry" />
        </mxCell>
        <mxCell id="G-0QwG7xUszIYkaHn1wC-56" value="(0,20)" style="text;html=1;align=center;verticalAlign=middle;whiteSpace=wrap;rounded=0;fontColor=#FF8000;" vertex="1" parent="1">
          <mxGeometry x="593.12" y="180" width="60" height="30" as="geometry" />
        </mxCell>
        <mxCell id="G-0QwG7xUszIYkaHn1wC-57" value="(160,-20)" style="text;html=1;align=center;verticalAlign=middle;whiteSpace=wrap;rounded=0;fontColor=#00FFFF;" vertex="1" parent="1">
          <mxGeometry x="503.12" y="310" width="60" height="30" as="geometry" />
        </mxCell>
        <mxCell id="G-0QwG7xUszIYkaHn1wC-58" value="(160,20)" style="text;html=1;align=center;verticalAlign=middle;whiteSpace=wrap;rounded=0;fontColor=#3333FF;" vertex="1" parent="1">
          <mxGeometry x="603.12" y="310" width="60" height="30" as="geometry" />
        </mxCell>
        <mxCell id="G-0QwG7xUszIYkaHn1wC-59" value="(&lt;font color=&quot;#ff0000&quot;&gt;0&lt;/font&gt;,&lt;font color=&quot;#ff0000&quot;&gt;0&lt;/font&gt;,&lt;font color=&quot;#ff8000&quot;&gt;1&lt;/font&gt;,&lt;font color=&quot;#ff8000&quot;&gt;0&lt;/font&gt;)" style="rounded=0;whiteSpace=wrap;html=1;" vertex="1" parent="1">
          <mxGeometry x="271.25" y="370" width="67.5" height="30" as="geometry" />
        </mxCell>
        <mxCell id="G-0QwG7xUszIYkaHn1wC-60" value="(&lt;font color=&quot;#3333ff&quot;&gt;160&lt;/font&gt;,&lt;font color=&quot;#3333ff&quot;&gt;0&lt;/font&gt;,&lt;font color=&quot;#00ffff&quot;&gt;-1&lt;/font&gt;,&lt;font color=&quot;#00ffff&quot;&gt;0&lt;/font&gt;)" style="rounded=0;whiteSpace=wrap;html=1;" vertex="1" parent="1">
          <mxGeometry x="346.25" y="370" width="67.5" height="30" as="geometry" />
        </mxCell>
        <mxCell id="G-0QwG7xUszIYkaHn1wC-61" value="(&lt;font color=&quot;#ff8000&quot;&gt;0,20&lt;/font&gt;,&lt;font color=&quot;#3333ff&quot;&gt;160,20&lt;/font&gt;,&lt;font color=&quot;#00ffff&quot;&gt;160,-20&lt;/font&gt;,&lt;font color=&quot;#ff0000&quot;&gt;0,-20&lt;/font&gt;)" style="rounded=0;whiteSpace=wrap;html=1;" vertex="1" parent="1">
          <mxGeometry x="500" y="370" width="166.25" height="30" as="geometry" />
        </mxCell>
      </root>
    </mxGraphModel>
  </diagram>
</mxfile>
